<svg xmlns="http://www.w3.org/2000/svg" width="67.026" height="67.09" viewBox="0 0 67.026 67.09">
  <g id="Group_198" data-name="Group 198" transform="translate(-2.217 -2.047)">
    <path id="Path_496" data-name="Path 496" d="M253.6,255.935h.026C253.692,255.922,253.613,255.922,253.6,255.935Z" transform="translate(-218.184 -220.349)" fill="#1082e3"/>
    <path id="Path_497" data-name="Path 497" d="M195.839,118.975v2.615a8.9,8.9,0,0,0,1.862,17.6c-.079.013.013.013.026,0a5.439,5.439,0,0,1,5.137,5.124,5.17,5.17,0,1,1-10.341,0,1.862,1.862,0,0,0-3.724,0,8.92,8.92,0,0,0,7.039,8.7v2.6a1.862,1.862,0,0,0,3.724,0v-2.615a8.92,8.92,0,0,0,7.039-8.7,9.171,9.171,0,0,0-9.231-8.875h-.026a5.17,5.17,0,1,1,5.52-5.151,1.862,1.862,0,1,0,3.724,0,8.92,8.92,0,0,0-7.039-8.7v-2.615a1.86,1.86,0,0,0-1.862-1.862A1.886,1.886,0,0,0,195.839,118.975Z" transform="translate(-161.942 -99.858)" fill="#1082e3"/>
    <path id="Path_498" data-name="Path 498" d="M69.225,15.5a1.862,1.862,0,0,0-1.915-1.77C47.7,14.284,39.18,5.211,37.529,3.19a1.947,1.947,0,0,0-3.553.013c-5.811,6.867-16.64,10.909-29.755,10.526a1.861,1.861,0,0,0-1.915,1.7c-.04.423-3.275,42.658,32.871,53.606h0a1.953,1.953,0,0,0,1.36-.053C70.85,58.077,69.252,15.921,69.225,15.5ZM35.76,65.314C22.143,61.022,13,51.5,8.593,37c-.238-.779-.449-1.558-.647-2.324h3.9a1.862,1.862,0,0,0,0-3.724H7.1c-.317-1.624-.541-3.183-.713-4.636h7.924a1.862,1.862,0,1,0,0-3.724H6.058c-.132-2.153-.132-3.909-.106-5.1,17.327,0,26.466-7.264,29.821-10.7,3.354,3.434,12.467,10.671,29.741,10.7C65.382,25.311,63.084,56.373,35.76,65.314Z" transform="translate(0 0)" fill="#1082e3"/>
  </g>
</svg>
