<svg xmlns="http://www.w3.org/2000/svg" width="58.656" height="67.034" viewBox="0 0 58.656 67.034">
  <g id="facebook_15_" data-name="facebook (15)" transform="translate(-31.994)">
    <g id="Group_202" data-name="Group 202" transform="translate(64.402 38.536)">
      <path id="Path_504" data-name="Path 504" d="M292.652,322.835a5.186,5.186,0,0,1-4.177-2.126,1.2,1.2,0,0,0-.971-.515h-3.765a1.9,1.9,0,0,1-1.645-2.85l1.279-2.215a8.589,8.589,0,0,0,1.149-4.289v-.682l-2.505-.452a3.025,3.025,0,0,1,1.073-5.954l1.432.258v-1.544a8.13,8.13,0,0,1,16.26,0v1.544l1.432-.258a3.025,3.025,0,1,1,1.073,5.954l-2.505.452v.682a8.589,8.589,0,0,0,1.149,4.289l1.279,2.215a1.9,1.9,0,0,1-1.646,2.85H297.8a1.2,1.2,0,0,0-.971.515A5.185,5.185,0,0,1,292.652,322.835Zm-8.8-4.607H287.5a3.188,3.188,0,0,1,2.559,1.323,3.2,3.2,0,0,0,5.177,0,3.188,3.188,0,0,1,2.56-1.323h3.651l-1.222-2.117a10.557,10.557,0,0,1-1.412-5.271v-1.5a.983.983,0,0,1,.808-.967l3.314-.6a1.059,1.059,0,1,0-.376-2.085l-2.589.467a.983.983,0,0,1-1.157-.967v-2.72a6.164,6.164,0,0,0-12.329,0v2.72a.983.983,0,0,1-1.157.967l-2.589-.467a1.059,1.059,0,0,0-.376,2.085l3.314.6a.983.983,0,0,1,.808.967v1.5a10.557,10.557,0,0,1-1.412,5.271Z" transform="translate(-279.528 -294.337)" fill="#1082e3"/>
    </g>
    <g id="Group_203" data-name="Group 203" transform="translate(41.684 0)">
      <path id="Path_505" data-name="Path 505" d="M116.087,30.581h-5.4a1.377,1.377,0,0,1-1.376-1.376V24.73a.983.983,0,1,1,1.966,0v3.885H115.5V18.551a1.246,1.246,0,0,1,1.245-1.245H118.8V13.082h-2.058a1.246,1.246,0,0,1-1.245-1.245V10.458a4.273,4.273,0,0,1,4.268-4.268h.931V1.966h-.931a8.5,8.5,0,0,0-8.492,8.492v1.379a1.246,1.246,0,0,1-1.245,1.245h-2.058v4.224h2.058a1.246,1.246,0,0,1,1.245,1.245v1.23a.983.983,0,1,1-1.966,0v-.509h-1.927A1.377,1.377,0,0,1,106,17.9v-5.4a1.377,1.377,0,0,1,1.376-1.376h1.927v-.658A10.47,10.47,0,0,1,119.766,0h1.521a1.377,1.377,0,0,1,1.376,1.376v5.4a1.377,1.377,0,0,1-1.376,1.376h-1.521a2.3,2.3,0,0,0-2.3,2.3v.658h1.927a1.377,1.377,0,0,1,1.376,1.376v5.4a1.377,1.377,0,0,1-1.376,1.376h-1.927V29.2a1.378,1.378,0,0,1-1.376,1.376Z" transform="translate(-106.005 0)" fill="#1082e3"/>
    </g>
    <g id="Group_204" data-name="Group 204" transform="translate(60.16 9.587)">
      <path id="Path_506" data-name="Path 506" d="M267.6,99.2H252.625a5.5,5.5,0,0,1-5.5-5.5V78.726a5.5,5.5,0,0,1,5.5-5.5h1.644a.983.983,0,0,1,0,1.966h-1.644a3.536,3.536,0,0,0-3.532,3.532V93.7a3.536,3.536,0,0,0,3.532,3.532H267.6a3.536,3.536,0,0,0,3.532-3.532V78.726a3.536,3.536,0,0,0-3.532-3.532h-8.372a.983.983,0,0,1,0-1.966H267.6a5.5,5.5,0,0,1,5.5,5.5V93.7A5.5,5.5,0,0,1,267.6,99.2Z" transform="translate(-247.127 -73.228)" fill="#1082e3"/>
    </g>
    <g id="Group_205" data-name="Group 205" transform="translate(67.394 16.821)">
      <path id="Path_507" data-name="Path 507" d="M308.127,139.98a5.752,5.752,0,1,1,5.752-5.752A5.759,5.759,0,0,1,308.127,139.98Zm0-9.539a3.786,3.786,0,1,0,3.786,3.786A3.791,3.791,0,0,0,308.127,130.442Z" transform="translate(-302.375 -128.476)" fill="#1082e3"/>
    </g>
    <g id="Group_206" data-name="Group 206" transform="translate(78.502 14.439)">
      <circle id="Ellipse_29" data-name="Ellipse 29" cx="1.389" cy="1.389" r="1.389" fill="#1082e3"/>
    </g>
    <g id="Group_207" data-name="Group 207" transform="translate(31.994 34.551)">
      <path id="Path_508" data-name="Path 508" d="M51.094,287a12.775,12.775,0,0,1-12.242-9.165,7.37,7.37,0,0,1-3.584-4.194,5.419,5.419,0,0,1-2.8-1.143,1.245,1.245,0,0,1,.25-2.1l.152-.071a5.43,5.43,0,0,1-.684-1.046,1.245,1.245,0,0,1,1.114-1.8h2.641a7.39,7.39,0,0,1,13.6,2.474,10.65,10.65,0,0,0,5.552-3.048,10.818,10.818,0,0,0,1.36-1.719,1.37,1.37,0,0,1,1.219-.633,1.384,1.384,0,0,1,1.164.747A12.71,12.71,0,0,1,60.1,269.19a.983.983,0,1,1-1.943.3,10.763,10.763,0,0,0-.654-2.382,12.751,12.751,0,0,1-8.568,4.934,1.115,1.115,0,0,1-1.25-1.049,5.423,5.423,0,0,0-10.223-2.218,1.242,1.242,0,0,1-1.1.67H34.746a3.3,3.3,0,0,0,.269.214,1.113,1.113,0,0,1-.159,1.909,3.5,3.5,0,0,0,.957.136h.005a1.243,1.243,0,0,1,1.2.938,5.411,5.411,0,0,0,2.919,3.541,1.378,1.378,0,0,1,.739.886,10.793,10.793,0,0,0,19.234,3.4,12.742,12.742,0,0,1-3.957.19,1.177,1.177,0,0,1-.721-1.988l0,0a10.806,10.806,0,0,0,2.634-4.542.983.983,0,1,1,1.89.54,12.745,12.745,0,0,1-2.027,4.095,10.75,10.75,0,0,0,3.007-.546,1.376,1.376,0,0,1,1.66,1.942A12.727,12.727,0,0,1,51.094,287Z" transform="translate(-31.994 -263.896)" fill="#1082e3"/>
    </g>
  </g>
</svg>
