<svg xmlns="http://www.w3.org/2000/svg" width="59.427" height="59.743" viewBox="0 0 59.427 59.743">
  <g id="Consult-Talk" transform="translate(-2 -1.68)">
    <rect id="Rectangle_78" data-name="Rectangle 78" width="1.981" height="1.981" transform="translate(15.866 24.777)" fill="#1082e3"/>
    <rect id="Rectangle_79" data-name="Rectangle 79" width="1.981" height="1.981" transform="translate(25.771 24.777)" fill="#1082e3"/>
    <path id="Path_503" data-name="Path 503" d="M60.577,35.682l-3.87-.553a13.865,13.865,0,0,0-.651-1.585L58.4,30.423a.99.99,0,0,0-.092-1.295l-4.2-4.2a.98.98,0,0,0-.6-.28V15.111A7.924,7.924,0,0,0,56.475,8.93a7.841,7.841,0,0,0-4.529-7.155.99.99,0,0,0-1.413.9V8.217l-1.981.661L46.57,8.217V2.67a.99.99,0,0,0-1.413-.891A7.841,7.841,0,0,0,40.627,8.93,7.924,7.924,0,0,0,43.6,15.111v6.694H40.627a.99.99,0,0,0-.981.85l-.641,4.486,1.961.28.519-3.635h4.225l.519,3.635a.99.99,0,0,0,.7.81,11.825,11.825,0,0,1,2.377.978.99.99,0,0,0,1.071-.076l2.933-2.2L56.3,29.922l-2.2,2.933a.99.99,0,0,0-.076,1.071A11.825,11.825,0,0,1,55,36.3a.99.99,0,0,0,.81.7l3.635.519v4.225l-3.635.519a.99.99,0,0,0-.81.7,11.825,11.825,0,0,1-.978,2.377.99.99,0,0,0,.076,1.071l2.2,2.933-2.987,2.987-2.931-2.207a.99.99,0,0,0-1.071-.076,11.825,11.825,0,0,1-2.377.978.99.99,0,0,0-.7.81l-.516,3.637H41.618V51.292a10.994,10.994,0,0,0-.446-3.091,9.023,9.023,0,1,0-6.333-6.995c-.024-.01-.047-.022-.07-.031l-8.008-3.2V36.451a10.983,10.983,0,0,0,3.446-2.759h2.5a2.971,2.971,0,0,0,2.971-2.971V28.557a2.971,2.971,0,0,0,1.981-2.789V22.8a2.971,2.971,0,0,0-1.981-2.789V18.835a13.866,13.866,0,1,0-27.732,0v1.173A2.971,2.971,0,0,0,5.962,22.8v2.971a2.971,2.971,0,0,0,2.971,2.971h1.981c.063,0,.125-.01.187-.014a10.918,10.918,0,0,0,5.755,7.725v1.522l-8.008,3.2A10.844,10.844,0,0,0,2,51.292v9.141a.99.99,0,0,0,.99.99H40.627a.99.99,0,0,0,.99-.99V57.462H46.57a.99.99,0,0,0,.981-.85l.553-3.87a13.866,13.866,0,0,0,1.585-.651l3.122,2.341a.99.99,0,0,0,1.295-.092l4.2-4.2a.99.99,0,0,0,.092-1.295l-2.341-3.122a13.868,13.868,0,0,0,.651-1.585l3.87-.553a.99.99,0,0,0,.849-.98V36.663a.99.99,0,0,0-.85-.981ZM49.682,27.176c-.047-.023-.1-.038-.146-.059V14.873H47.561v7.854l-.01-.071a.99.99,0,0,0-.981-.85h-.99V14.615a.99.99,0,0,0-.425-.813,5.943,5.943,0,0,1-.565-9.307V8.93a.991.991,0,0,0,.678.94l2.971.99a.99.99,0,0,0,.626,0l2.971-.99a.99.99,0,0,0,.677-.94V4.495a5.943,5.943,0,0,1-.566,9.31.99.99,0,0,0-.425.81V25.8ZM36.666,39.634a6.983,6.983,0,1,1,3.3,5.884,10.812,10.812,0,0,0-2.586-2.85,6.771,6.771,0,0,1-.715-3.035ZM32.7,31.71H31.5a10.8,10.8,0,0,0,1.015-2.985c.062,0,.124.014.187.014h.99V30.72A.99.99,0,0,1,32.7,31.71ZM30.723,20.815a2.986,2.986,0,0,1-2.377-1.189L26.563,17.25a.99.99,0,0,0-.668-.388,1,1,0,0,0-.744.209l-3.324,2.655a4.97,4.97,0,0,1-3.089,1.089H12.895v-.99a8.914,8.914,0,1,1,17.828,0Zm4.952,4.952a.99.99,0,0,1-.99.99H32.7V21.806h1.981a.99.99,0,0,1,.99.99ZM21.809,6.949A11.9,11.9,0,0,1,33.694,18.835v.99H32.7a10.895,10.895,0,1,0-21.79,0h-.99v-.99A11.9,11.9,0,0,1,21.809,6.949ZM8.933,26.758a.99.99,0,0,1-.99-.99V22.8a.99.99,0,0,1,.99-.99h1.981v4.952Zm3.962,0V22.8h5.844a6.957,6.957,0,0,0,4.33-1.519L25.6,19.255l1.166,1.56A4.977,4.977,0,0,0,30.723,22.8v3.962a8.862,8.862,0,0,1-1.507,4.952H21.809v1.981H27.4a8.905,8.905,0,0,1-14.5-6.933Zm8.914,10.895a10.861,10.861,0,0,0,2.971-.422v1.412a2.971,2.971,0,1,1-5.943,0V37.231a10.861,10.861,0,0,0,2.971.422Zm17.828,21.79H33.694V48.548H31.713V59.443H11.9V48.548H9.924V59.443H3.981v-8.15a8.872,8.872,0,0,1,5.6-8.277l7.491-3a4.921,4.921,0,0,0,9.467,0l7.491,3a8.872,8.872,0,0,1,5.6,8.277Z" transform="translate(0)" fill="#1082e3"/>
    <rect id="Rectangle_80" data-name="Rectangle 80" width="1.981" height="1.981" transform="translate(42.608 25.768)" fill="#1082e3"/>
    <rect id="Rectangle_81" data-name="Rectangle 81" width="1.981" height="1.981" transform="translate(42.608 51.519)" fill="#1082e3"/>
    <rect id="Rectangle_82" data-name="Rectangle 82" width="1.981" height="1.981" transform="translate(51.302 48.739) rotate(-45)" fill="#1082e3"/>
    <rect id="Rectangle_83" data-name="Rectangle 83" width="1.981" height="1.981" transform="translate(55.484 38.643)" fill="#1082e3"/>
    <rect id="Rectangle_84" data-name="Rectangle 84" width="1.981" height="1.981" transform="translate(51.302 30.53) rotate(-45)" fill="#1082e3"/>
  </g>
</svg>
